<?xml version="1.0" encoding="UTF-8" standalone="no"?>
<!-- Created with Inkscape (http://www.inkscape.org/) -->

<svg
   xmlns:dc="http://purl.org/dc/elements/1.1/"
   xmlns:cc="http://creativecommons.org/ns#"
   xmlns:rdf="http://www.w3.org/1999/02/22-rdf-syntax-ns#"
   xmlns:svg="http://www.w3.org/2000/svg"
   xmlns="http://www.w3.org/2000/svg"
   xmlns:sodipodi="http://sodipodi.sourceforge.net/DTD/sodipodi-0.dtd"
   xmlns:inkscape="http://www.inkscape.org/namespaces/inkscape"
   width="1052.3622"
   height="744.09448"
   id="svg7160"
   version="1.1"
   inkscape:version="0.48.3.1 r9886"
   sodipodi:docname="fig8.svg">
  <defs
     id="defs7162">
    <marker
       inkscape:stockid="DotL"
       orient="auto"
       refY="0"
       refX="0"
       id="DotL"
       style="overflow:visible">
      <path
         id="path4285"
         d="m -2.5,-1 c 0,2.76 -2.24,5 -5,5 -2.76,0 -5,-2.24 -5,-5 0,-2.76 2.24,-5 5,-5 2.76,0 5,2.24 5,5 z"
         style="fill-rule:evenodd;stroke:#000000;stroke-width:1pt"
         transform="matrix(0.8,0,0,0.8,5.92,0.8)"
         inkscape:connector-curvature="0" />
    </marker>
    <marker
       inkscape:stockid="DotL"
       orient="auto"
       refY="0"
       refX="0"
       id="DotL-5"
       style="overflow:visible">
      <path
         inkscape:connector-curvature="0"
         id="path4285-9"
         d="m -2.5,-1 c 0,2.76 -2.24,5 -5,5 -2.76,0 -5,-2.24 -5,-5 0,-2.76 2.24,-5 5,-5 2.76,0 5,2.24 5,5 z"
         style="fill-rule:evenodd;stroke:#000000;stroke-width:1pt"
         transform="matrix(0.8,0,0,0.8,5.92,0.8)" />
    </marker>
    <marker
       inkscape:stockid="DotL"
       orient="auto"
       refY="0"
       refX="0"
       id="DotL-5-2"
       style="overflow:visible">
      <path
         inkscape:connector-curvature="0"
         id="path4285-9-2"
         d="m -2.5,-1 c 0,2.76 -2.24,5 -5,5 -2.76,0 -5,-2.24 -5,-5 0,-2.76 2.24,-5 5,-5 2.76,0 5,2.24 5,5 z"
         style="fill-rule:evenodd;stroke:#000000;stroke-width:1pt"
         transform="matrix(0.8,0,0,0.8,5.92,0.8)" />
    </marker>
    <marker
       inkscape:stockid="DotL"
       orient="auto"
       refY="0"
       refX="0"
       id="DotL-5-2-3"
       style="overflow:visible">
      <path
         inkscape:connector-curvature="0"
         id="path4285-9-2-1"
         d="m -2.5,-1 c 0,2.76 -2.24,5 -5,5 -2.76,0 -5,-2.24 -5,-5 0,-2.76 2.24,-5 5,-5 2.76,0 5,2.24 5,5 z"
         style="fill-rule:evenodd;stroke:#000000;stroke-width:1pt"
         transform="matrix(0.8,0,0,0.8,5.92,0.8)" />
    </marker>
    <marker
       inkscape:stockid="DotL"
       orient="auto"
       refY="0"
       refX="0"
       id="DotL-5-2-3-2"
       style="overflow:visible">
      <path
         inkscape:connector-curvature="0"
         id="path4285-9-2-1-5"
         d="m -2.5,-1 c 0,2.76 -2.24,5 -5,5 -2.76,0 -5,-2.24 -5,-5 0,-2.76 2.24,-5 5,-5 2.76,0 5,2.24 5,5 z"
         style="fill-rule:evenodd;stroke:#000000;stroke-width:1pt"
         transform="matrix(0.8,0,0,0.8,5.92,0.8)" />
    </marker>
    <marker
       inkscape:stockid="DotL"
       orient="auto"
       refY="0"
       refX="0"
       id="DotL-5-2-3-2-7"
       style="overflow:visible">
      <path
         inkscape:connector-curvature="0"
         id="path4285-9-2-1-5-3"
         d="m -2.5,-1 c 0,2.76 -2.24,5 -5,5 -2.76,0 -5,-2.24 -5,-5 0,-2.76 2.24,-5 5,-5 2.76,0 5,2.24 5,5 z"
         style="fill-rule:evenodd;stroke:#000000;stroke-width:1pt"
         transform="matrix(0.8,0,0,0.8,5.92,0.8)" />
    </marker>
    <marker
       inkscape:stockid="DotL"
       orient="auto"
       refY="0"
       refX="0"
       id="DotL-5-2-3-2-7-0"
       style="overflow:visible">
      <path
         inkscape:connector-curvature="0"
         id="path4285-9-2-1-5-3-1"
         d="m -2.5,-1 c 0,2.76 -2.24,5 -5,5 -2.76,0 -5,-2.24 -5,-5 0,-2.76 2.24,-5 5,-5 2.76,0 5,2.24 5,5 z"
         style="fill-rule:evenodd;stroke:#000000;stroke-width:1pt"
         transform="matrix(0.8,0,0,0.8,5.92,0.8)" />
    </marker>
  </defs>
  <sodipodi:namedview
     id="base"
     pagecolor="#ffffff"
     bordercolor="#666666"
     borderopacity="1.0"
     inkscape:pageopacity="0.0"
     inkscape:pageshadow="2"
     inkscape:zoom="0.55164911"
     inkscape:cx="487.28416"
     inkscape:cy="226.63912"
     inkscape:document-units="px"
     inkscape:current-layer="layer2"
     showgrid="false"
     inkscape:window-width="1215"
     inkscape:window-height="1000"
     inkscape:window-x="65"
     inkscape:window-y="24"
     inkscape:window-maximized="1" />
  <metadata
     id="metadata7165">
    <rdf:RDF>
      <cc:Work
         rdf:about="">
        <dc:format>image/svg+xml</dc:format>
        <dc:type
           rdf:resource="http://purl.org/dc/dcmitype/StillImage" />
        <dc:title />
      </cc:Work>
    </rdf:RDF>
  </metadata>
  <g
     inkscape:label="レイヤー 1"
     inkscape:groupmode="layer"
     id="layer1"
     style="display:inline"
     transform="translate(0,-308.2677)"
     sodipodi:insensitive="true">
    <rect
       style="fill:#b3b3b3;stroke:none;display:inline"
       id="rect2985-1"
       width="497.51254"
       height="157.34763"
       x="26.550335"
       y="331.91425" />
    <rect
       style="fill:#ffffff;stroke:#000000;stroke-width:2.57045889;stroke-miterlimit:4;stroke-opacity:1;stroke-dasharray:none;stroke-dashoffset:0;display:inline"
       id="rect2985"
       width="497.51254"
       height="165.76347"
       x="14.738849"
       y="316.09146" />
    <flowRoot
       xml:space="preserve"
       id="flowRoot3862"
       style="font-size:40px;font-style:normal;font-weight:normal;line-height:125%;letter-spacing:0px;word-spacing:0px;fill:#000000;fill-opacity:1;stroke:none;display:inline;font-family:Sans"
       transform="matrix(0.57329916,0,0,1.1914787,-5.5151117,151.11426)"><flowRegion
         id="flowRegion3864"><rect
           id="rect3866"
           width="297.14285"
           height="67.142868"
           x="218.57143"
           y="215.21933" /></flowRegion><flowPara
         id="flowPara3868" /></flowRoot>    <rect
       style="fill:#b3b3b3;stroke:none;display:inline"
       id="rect2985-1-2"
       width="638.75586"
       height="148.1293"
       x="256.11414"
       y="524.31793" />
    <rect
       style="fill:#ffffff;stroke:#000000;stroke-width:2.83846998;stroke-miterlimit:4;stroke-opacity:1;stroke-dasharray:none;stroke-dashoffset:0;display:inline"
       id="rect2985-3"
       width="644.42212"
       height="156.05209"
       x="239.65753"
       y="509.42212" />
    <rect
       style="fill:#b3b3b3;stroke:none;display:inline"
       id="rect2985-1-9"
       width="686.09033"
       height="173.00601"
       x="425.26422"
       y="769.82294" />
    <rect
       style="fill:#ffffff;stroke:#000000;stroke-width:3.17914772;stroke-miterlimit:4;stroke-opacity:1;stroke-dasharray:none;stroke-dashoffset:0;display:inline"
       id="rect2985-5"
       width="692.15454"
       height="182.25935"
       x="408.12289"
       y="752.42535" />
    <rect
       style="fill:#b3b3b3;stroke:none;display:inline"
       id="rect2985-1-2-1"
       width="643.29053"
       height="40.742054"
       x="253.01901"
       y="690.48438" />
    <rect
       style="fill:#ffffff;stroke:#000000;stroke-width:1.56564033;stroke-miterlimit:4;stroke-opacity:1;stroke-dasharray:none;stroke-dashoffset:0;display:inline"
       id="rect2985-3-1"
       width="647.57092"
       height="47.246357"
       x="239.65613"
       y="677.75342" />
    <rect
       style="fill:#b3b3b3;stroke:none;display:inline"
       id="rect2985-1-9-0"
       width="686.09039"
       height="52.490891"
       x="424.49817"
       y="966.11975" />
    <rect
       style="fill:#ffffff;stroke:#000000;stroke-width:1.81614637;stroke-miterlimit:4;stroke-opacity:1;stroke-dasharray:none;stroke-dashoffset:0;display:inline"
       id="rect2985-5-9"
       width="695.82043"
       height="59.166519"
       x="407.35706"
       y="951.69934" />
  </g>
  <g
     inkscape:groupmode="layer"
     id="layer5"
     inkscape:label="レイヤー2"
     style="display:inline"
     sodipodi:insensitive="true">
    <flowRoot
       xml:space="preserve"
       id="flowRoot7455"
       style="font-size:40px;font-style:normal;font-weight:normal;line-height:125%;letter-spacing:0px;word-spacing:0px;fill:#000000;fill-opacity:1;stroke:none;font-family:Sans"
       transform="matrix(0.69777806,0,0,0.69777806,-19.801793,-52.428759)"><flowRegion
         id="flowRegion7457"><rect
           id="rect7459"
           width="746.18683"
           height="356.73593"
           x="80"
           y="89.808769" /></flowRegion><flowPara
         id="flowPara7521">class Stp(app_manager.RyuApp)</flowPara><flowPara
         id="flowPara7523">    self.bridge_list = {}</flowPara><flowPara
         id="flowPara7525" /><flowPara
         id="flowPara7527">    各OFPメッセージイベントハンドラ</flowPara></flowRoot>    <flowRoot
       xml:space="preserve"
       id="flowRoot7455-2"
       style="font-size:40px;font-style:normal;font-weight:normal;line-height:125%;letter-spacing:0px;word-spacing:0px;fill:#000000;fill-opacity:1;stroke:none;font-family:Sans"
       transform="matrix(0.69777806,0,0,0.69777806,204.12241,140.68974)"><flowRegion
         id="flowRegion7457-1"><rect
           id="rect7459-1"
           width="995.89929"
           height="348.93597"
           x="80"
           y="89.808769" /></flowRegion><flowPara
         id="flowPara7521-1">class Bridge():</flowPara><flowPara
         id="flowPara7523-1">    self.ports = {}</flowPara><flowPara
         id="flowPara7525-9" /><flowPara
         id="flowPara7527-0">    def recalculate_spanning_tree() ： STP計算</flowPara></flowRoot>    <flowRoot
       xml:space="preserve"
       id="flowRoot7455-2-2"
       style="font-size:40px;font-style:normal;font-weight:normal;line-height:125%;letter-spacing:0px;word-spacing:0px;fill:#000000;fill-opacity:1;stroke:none;font-family:Sans"
       transform="matrix(0.69777806,0,0,0.69777806,376.15466,393.31077)"><flowRegion
         id="flowRegion7457-1-8"><rect
           id="rect7459-1-1"
           width="1008.8993"
           height="345.55139"
           x="80"
           y="89.808769" /></flowRegion><flowPara
         id="flowPara7521-1-2">class Port():</flowPara><flowPara
         id="flowPara7527-0-7">    self.state_machine ： 状態遷移制御スレッド</flowPara><flowPara
         id="flowPara7612">    self.send_bpdu_thread ： BPDU送信スレッド</flowPara><flowPara
         id="flowPara7614">    self.wait_bpdu_thread ： BPDU受信待ちスレッド</flowPara></flowRoot>    <flowRoot
       xml:space="preserve"
       id="flowRoot7455-2-3"
       style="font-size:40px;font-style:normal;font-weight:normal;line-height:125%;letter-spacing:0px;word-spacing:0px;fill:#000000;fill-opacity:1;stroke:none;display:inline;font-family:Sans"
       transform="matrix(0.69777806,0,0,0.69777806,204.85295,308.08815)"><flowRegion
         id="flowRegion7457-1-7"><rect
           id="rect7459-1-8"
           width="850.36102"
           height="274.47452"
           x="80"
           y="89.808769" /></flowRegion><flowPara
         id="flowPara7527-0-8">class Bridge():</flowPara></flowRoot>    <flowRoot
       xml:space="preserve"
       id="flowRoot8487"
       style="font-size:40px;font-style:normal;font-weight:normal;line-height:125%;letter-spacing:0px;word-spacing:0px;fill:#000000;fill-opacity:1;stroke:none;font-family:Sans"
       transform="matrix(0.88816871,0,0,0.88816871,3.3054333,6.8549401)"><flowRegion
         id="flowRegion8489"><rect
           id="rect8491"
           width="581.84784"
           height="246.47722"
           x="812.16266"
           y="295.58676" /></flowRegion><flowPara
         id="flowPara8493" /></flowRoot>    <flowRoot
       xml:space="preserve"
       id="flowRoot7455-2-2-3"
       style="font-size:40px;font-style:normal;font-weight:normal;line-height:125%;letter-spacing:0px;word-spacing:0px;fill:#000000;fill-opacity:1;stroke:none;display:inline;font-family:Sans"
       transform="matrix(0.69777806,0,0,0.69777806,376.77681,588.74728)"><flowRegion
         id="flowRegion7457-1-8-3"><rect
           id="rect7459-1-1-5"
           width="914.13013"
           height="274.47452"
           x="80"
           y="89.808769" /></flowRegion><flowPara
         id="flowPara7614-8">class Port():</flowPara></flowRoot>  </g>
  <g
     inkscape:groupmode="layer"
     id="layer2"
     inkscape:label="レイヤー3"
     transform="translate(0,-308.2677)"
     style="display:inline">
    <path
       style="fill:none;stroke:#000000;stroke-width:1.89457011;stroke-linecap:butt;stroke-linejoin:miter;stroke-miterlimit:4;stroke-opacity:1;stroke-dasharray:5.68371044, 5.68371044;stroke-dashoffset:0;marker-end:url(#DotL-5-2-3-2-7)"
       d="M 236.94804,702.49949 173.32299,400.92699"
       id="path6474"
       inkscape:connector-curvature="0" />
    <path
       style="fill:none;stroke:#000000;stroke-width:1.875;stroke-linecap:butt;stroke-linejoin:miter;stroke-miterlimit:4;stroke-opacity:1;stroke-dasharray:5.625,5.625;stroke-dashoffset:0;marker-end:url(#DotL-5-2-3-2-7)"
       d="M 405.23574,981.75265 362.95697,593.51143"
       id="path6474-8"
       inkscape:connector-curvature="0" />
    <path
       style="fill:none;stroke:#000000;stroke-width:1.875;stroke-linecap:butt;stroke-linejoin:miter;stroke-miterlimit:4;stroke-opacity:1;stroke-dasharray:5.625,5.625;stroke-dashoffset:0"
       d="M 408.0912,812.85311 362.29564,601.62302"
       id="path6695"
       inkscape:connector-curvature="0" />
    <path
       style="fill:none;stroke:#000000;stroke-width:1.875;stroke-linecap:butt;stroke-linejoin:miter;stroke-miterlimit:4;stroke-opacity:1;stroke-dasharray:5.625,5.625;stroke-dashoffset:0;display:inline"
       d="M 239.15838,566.82415 177.77332,408.55917"
       id="path6695-1"
       inkscape:connector-curvature="0" />
  </g>
</svg>
